<?xml version="1.0" encoding="UTF-8" standalone="no"?>
<!DOCTYPE svg PUBLIC "-//W3C//DTD SVG 1.1//EN" "http://www.w3.org/Graphics/SVG/1.1/DTD/svg11.dtd">
<svg version="1.1" xmlns="http://www.w3.org/2000/svg" xmlns:xlink="http://www.w3.org/1999/xlink" preserveAspectRatio="xMidYMid meet" viewBox="0 0 64 64" width="64" height="64"><defs><path d="M29.04 9.18L53.31 43.46L4.77 43.46L29.04 9.18Z" id="cp6fIN4RC"></path><path d="M60.71 43.46C60.71 50.7 54.09 56.58 45.94 56.58C37.79 56.58 31.17 50.7 31.17 43.46C31.17 36.22 37.79 30.34 45.94 30.34C54.09 30.34 60.71 36.22 60.71 43.46Z" id="b70Ubh3oTX"></path><path d="M29.04 17.83L29.04 26.76L29.04 32.48" id="b421V9GMR"></path><path d="M45.94 34.11L45.94 43.04L51.54 49.78" id="b3hHDfos1k"></path><path d="M30.5 36.6C30.5 37.45 29.9 38.15 29.17 38.15C28.43 38.15 27.83 37.45 27.83 36.6C27.83 35.75 28.43 35.05 29.17 35.05C29.9 35.05 30.5 35.75 30.5 36.6Z" id="b1NUNJCc5W"></path></defs><g><g><g><use xlink:href="#cp6fIN4RC" opacity="1" fill="#d120ca" fill-opacity="0"></use><g><use xlink:href="#cp6fIN4RC" opacity="1" fill-opacity="0" stroke="#000000" stroke-width="3" stroke-opacity="1"></use></g></g><g><use xlink:href="#b70Ubh3oTX" opacity="1" fill="#ffffff" fill-opacity="1"></use><g><use xlink:href="#b70Ubh3oTX" opacity="1" fill-opacity="0" stroke="#000000" stroke-width="2" stroke-opacity="1"></use></g></g><g><g><use xlink:href="#b421V9GMR" opacity="1" fill-opacity="0" stroke="#000000" stroke-width="3" stroke-opacity="1"></use></g></g><g><g><use xlink:href="#b3hHDfos1k" opacity="1" fill-opacity="0" stroke="#000000" stroke-width="3" stroke-opacity="1"></use></g></g><g><use xlink:href="#b1NUNJCc5W" opacity="1" fill="#000000" fill-opacity="1"></use><g><use xlink:href="#b1NUNJCc5W" opacity="1" fill-opacity="0" stroke="#ef0a7b" stroke-width="0" stroke-opacity="1"></use></g></g></g></g></svg>