<?xml version="1.0" encoding="UTF-8" standalone="no"?>
<!DOCTYPE svg PUBLIC "-//W3C//DTD SVG 1.1//EN" "http://www.w3.org/Graphics/SVG/1.1/DTD/svg11.dtd">
<svg version="1.1" xmlns="http://www.w3.org/2000/svg" xmlns:xlink="http://www.w3.org/1999/xlink" preserveAspectRatio="xMidYMid meet" viewBox="0 0 280 280" width="280" height="280">
<defs>
<path d="M260 251.42C249.91 253.1 243.6 254.15 241.07 254.57C174.15 265.73 105.85 265.73 38.93 254.57C35.14 253.94 59.14 257.94 38.93 254.57C28.01 252.75 20 243.3 20 232.23C20 192.07 20 89.77 20 49.35C20 39.01 27.48 30.17 37.69 28.47C58.15 25.06 34.15 29.06 37.69 28.47C105.43 17.18 174.57 17.18 242.31 28.47C244.67 28.86 250.57 29.85 260 31.42" id="biqSCQu89"></path>
<path d="M259.95 85.43C259.95 93.74 253.21 100.48 244.9 100.48C236.59 100.48 229.85 93.74 229.85 85.43C229.85 77.12 236.59 70.38 244.9 70.38C253.21 70.38 259.95 77.12 259.95 85.43Z" id="a277bhdA76"></path>
<path d="M259.95 198.01C259.95 206.31 253.21 213.06 244.9 213.06C236.59 213.06 229.85 206.31 229.85 198.01C229.85 189.7 236.59 182.95 244.9 182.95C253.21 182.95 259.95 189.7 259.95 198.01Z" id="aghMCpm4"></path>
<path d="M265 141.54C265 152.6 256.02 161.59 244.95 161.59C233.88 161.59 224.9 152.6 224.9 141.54C224.9 130.47 233.88 121.49 244.95 121.49C256.02 121.49 265 130.47 265 141.54Z" id="a4oUmNLOEi"></path></defs>

<g>
	<use xlink:href="#biqSCQu89" opacity="1" fill-opacity="0" stroke="#ffa800" stroke-width="15" stroke-opacity="1"></use>
	<use xlink:href="#a277bhdA76" opacity="1" fill="#ffa800" fill-opacity="1"></use>
	<use xlink:href="#aghMCpm4" opacity="1" fill="#ffa800" fill-opacity="1"></use>
	<use xlink:href="#a4oUmNLOEi" opacity="1" fill="#ffa800" fill-opacity="1"></use>
</g>

</svg>
