<?xml version="1.0" encoding="UTF-8" standalone="no"?>
<!DOCTYPE svg PUBLIC "-//W3C//DTD SVG 1.1//EN" "http://www.w3.org/Graphics/SVG/1.1/DTD/svg11.dtd">
<svg version="1.1" xmlns="http://www.w3.org/2000/svg" xmlns:xlink="http://www.w3.org/1999/xlink" preserveAspectRatio="xMidYMid meet" viewBox="0 0 300 300" width="300" height="300"><defs><path d="M268.56 259.98C258.49 261.66 252.19 262.71 249.66 263.13C182.87 274.27 114.69 274.27 47.9 263.13C44.11 262.5 68.07 266.49 47.9 263.13C37 261.31 29 251.88 29 240.83C29 200.74 29 98.63 29 58.29C29 47.97 36.47 39.14 46.66 37.45C67.08 34.04 43.13 38.04 46.66 37.45C114.27 26.18 183.29 26.18 250.9 37.45C253.26 37.84 259.14 38.82 268.56 40.39" id="ckpxynSwP"></path><path d="M264.06 115.26C253.01 115.26 244.05 106.3 244.05 95.25C244.05 84.2 253.01 75.24 264.06 75.24C275.11 75.24 284.08 84.2 284.08 95.25C284.08 106.3 275.11 115.26 264.06 115.26Z" id="d3SSZw1Rsh"></path><path d="M271 175C257.2 175 246 163.79 246 150C246 136.2 257.2 125 271 125C284.81 125 296 136.2 296 150C296 163.79 284.81 175 271 175Z" id="dilqvvi3x"></path><path d="M264.06 223C253.01 223 244.05 214.02 244.05 202.99C244.05 191.94 253.01 182.96 264.06 182.96C275.11 182.96 284.08 191.94 284.08 202.99C284.08 214.02 275.11 223 264.06 223Z" id="j45boO3e8g"></path></defs><g><g><g><use xlink:href="#ckpxynSwP" opacity="1" fill="#000000" fill-opacity="0"></use><g><use xlink:href="#ckpxynSwP" opacity="1" fill-opacity="0" stroke="#ff942f" stroke-width="50" stroke-opacity="1"></use></g></g><g><use xlink:href="#d3SSZw1Rsh" opacity="1" fill="#ff942f" fill-opacity="1"></use><g><use xlink:href="#d3SSZw1Rsh" opacity="1" fill-opacity="0" stroke="#000000" stroke-width="1" stroke-opacity="0"></use></g></g><g><use xlink:href="#dilqvvi3x" opacity="1" fill="#ff942f" fill-opacity="1"></use><g><use xlink:href="#dilqvvi3x" opacity="1" fill-opacity="0" stroke="#000000" stroke-width="1" stroke-opacity="0"></use></g></g><g><use xlink:href="#j45boO3e8g" opacity="1" fill="#ff942f" fill-opacity="1"></use><g><use xlink:href="#j45boO3e8g" opacity="1" fill-opacity="0" stroke="#000000" stroke-width="1" stroke-opacity="0"></use></g></g></g></g></svg>