<?xml version="1.0" encoding="UTF-8" standalone="no"?>
<!DOCTYPE svg PUBLIC "-//W3C//DTD SVG 1.1//EN" "http://www.w3.org/Graphics/SVG/1.1/DTD/svg11.dtd">
<svg version="1.1" xmlns="http://www.w3.org/2000/svg" xmlns:xlink="http://www.w3.org/1999/xlink" preserveAspectRatio="xMidYMid meet" viewBox="0 0 280 260" width="280" height="260"><defs><path d="M260 195L260 240C260 240 260 240 260 240C180.55 253.24 99.45 253.24 20 240C20 240 20 240 20 240L20 20C20 20 20 20 20 20C99.45 6.76 180.55 6.76 260 20C260 20 260 20 260 20L260 65" id="b2WgiwamXJ"></path><clipPath id="clipd93vmSSvVw"><use xlink:href="#b2WgiwamXJ" opacity="1"></use></clipPath><path d="M259.95 176.59C259.95 184.89 253.21 191.64 244.9 191.64C236.59 191.64 229.85 184.89 229.85 176.59C229.85 168.28 236.59 161.53 244.9 161.53C253.21 161.53 259.95 168.28 259.95 176.59Z" id="b2Tn4RobJT"></path><path d="M265 130.12C265 141.18 256.02 150.17 244.95 150.17C233.88 150.17 224.9 141.18 224.9 130.12C224.9 119.05 233.88 110.07 244.95 110.07C256.02 110.07 265 119.05 265 130.12Z" id="b1LToOZ2gJ"></path><path d="M259.95 84.01C259.95 92.32 253.21 99.06 244.9 99.06C236.59 99.06 229.85 92.32 229.85 84.01C229.85 75.7 236.59 68.96 244.9 68.96C253.21 68.96 259.95 75.7 259.95 84.01Z" id="a5T99qNIFO"></path></defs><g><g><g><g clip-path="url(#clipd93vmSSvVw)"><use xlink:href="#b2WgiwamXJ" opacity="1" fill-opacity="0" stroke="#ffa800" stroke-width="60" stroke-opacity="1"></use></g></g><g><use xlink:href="#b2Tn4RobJT" opacity="1" fill="#ffa800" fill-opacity="1"></use></g><g><use xlink:href="#b1LToOZ2gJ" opacity="1" fill="#ffa800" fill-opacity="1"></use></g><g><use xlink:href="#a5T99qNIFO" opacity="1" fill="#ffa800" fill-opacity="1"></use></g></g></g></svg>