<svg version="1" xmlns="http://www.w3.org/2000/svg" width="933.333" height="933.333" viewBox="0 0 700.000000 700.000000"><path d="M362.7 24.6c-.1.1-18.9.5-41.7.8-22.8.4-46 .9-51.5 1.1-26.9 1-37.8 1.5-45.6 1.9-4.6.3-13.1.8-18.9 1.1-10.3.6-17.1 1-32 2-4.1.3-11.1.7-15.5 1-4.4.3-9.3.8-11 1-1.6.2-6.8.7-11.5 1.1-4.7.3-9.6.8-11 1-1.4.1-5.4.6-9 .9-20.7 2.1-38.6 6.8-50 13.3C54.2 56 41.3 67.1 34 76.6c-8.5 10.9-16.4 29.3-18.7 43.2-1 6.1-1 451.2 0 457.2 1.9 11.7 4 18.5 8.5 28 7.3 15.6 15.4 25.5 32.3 39.3 9.8 8.1 34.6 17.5 50.4 19.1 3.3.3 7.1.8 8.5 1 1.4.2 5.4.7 9 1 3.6.4 8.1.8 10 1 4.6.6 17.1 1.7 24 2.1 3 .2 9.1.7 13.5 1 25.8 1.9 57 3.6 92.5 5 26.6 1 74.9 1.9 107 1.8 44.9-.1 73.2-.8 105.5-2.8 4.4-.3 12.1-.7 17-1 5-.3 11.5-.7 14.5-1 3-.3 8.4-.7 12-1 3.6-.3 8.1-.7 10-1 1.9-.2 6.4-.7 10-1 3.6-.4 9.4-1 13-1.5 3.6-.5 8.8-1.2 11.5-1.5 2.8-.3 5.9-.8 7.1-1 1.9-.4 7.9-1.3 19.4-3 1.9-.3 4.9-.8 6.5-1.1 2.8-.5 22-3.7 29.2-4.9 3.6-.6 3.6.3.9-15-.8-5-1.7-10.6-2-12.5-.3-1.9-1-6.2-1.6-9.5-.6-3.3-1.3-7.6-1.6-9.5-.3-1.9-1.4-8.7-2.5-15-1.1-6.3-2.2-13.1-2.4-15-.2-1.9-.7-4.6-1-6-.4-1.4-.9-4.1-1.1-6-.2-1.9-.8-4.7-1.2-6.1l-.7-2.6-7.5 1.3c-4.1.7-9 1.5-11 1.8-1.9.3-7.3 1.2-12 2-9.6 1.6-12.5 2.1-26 4.1-9.9 1.5-13.8 2-23 3-3 .3-7.1.8-9 1-4.5.6-11.5 1.2-21 2-4.1.3-9.9.8-12.8 1-2.9.3-10.8.7-17.5 1.1-6.7.3-14.7.7-17.7.9-38.3 2.3-134.7 2.3-189.5 0-24.7-1-50.7-2.2-62-3-4.4-.3-11.4-.8-15.5-1-4.1-.3-10.4-.7-14-1-3.6-.3-9.6-.7-13.5-1-3.8-.2-8.8-.7-11-.9-2.2-.3-6.9-.8-10.5-1.1-3.6-.3-7.8-.7-9.5-.9-11.8-1.4-15.2-1.9-16.8-2.7-1.6-.9-1.7-12.2-1.7-214.9 0-202.8.1-213.9 1.8-214.4 3.2-.9 22.9-3 49.2-5.2 11.8-1 32.2-2.3 43.5-2.9 8.3-.4 27.9-1.4 39-2 9.1-.5 39.6-1.5 59.5-2 17.1-.5 107.1-.5 121-.1 28 .9 57.1 2.5 77 4.1 2.5.2 7.7.6 11.6 1 3.8.3 8.8.7 11 1 2.1.2 6.2.7 8.9 1 6.2.6 12.2 1.4 15.5 1.9 1.4.3 4.8.7 7.5 1.1 2.8.3 9.1 1.2 14 2 5 .8 10.7 1.7 12.9 2.1 2.1.3 4.8.7 5.9 1 1.2.2 3.7.6 5.7.9 2 .3 4.7.8 6 1 1.4.3 4.1.8 6 1.1 1.9.3 4 .7 4.6.9.7.2 1.4-1.2 1.8-3.3.3-2 .8-4.8 1-6.2.9-4.9 2.6-14.6 3.1-18 .3-1.9.7-4.6 1-6 .3-1.4.7-4 1-5.8.3-1.7.7-4.6 1-6.2.3-1.7.7-4.4 1-6 .3-1.7.7-4.4 1-6 .3-1.7.7-4.4 1-6 .3-1.7.7-4.2.9-5.8 1.8-10.7 3.7-22.1 4.2-24.4.5-2.5.3-2.7-4.8-3.7-2.9-.6-7.3-1.3-9.8-1.6-2.4-.4-4.7-.8-5-1-.3-.2-3-.6-6-1-3-.3-6.2-.8-7.1-1.1-1-.3-3-.6-4.5-.9-1.6-.2-5.8-.8-9.4-1.4-3.6-.6-8.2-1.3-10.4-1.5-2.1-.3-5.5-.8-7.5-1.1-4.2-.6-10.8-1.4-17.1-2-2.5-.3-6.3-.7-8.5-1-3.7-.4-7.8-.8-19.5-1.9-10.8-1.1-27.8-2.2-46-3.1-7.4-.4-16-.8-19-1-9.3-.6-91.8-2.3-92.3-1.9z"/><path d="M602.3 176.6c-12.9 2.6-26.2 12.4-31.8 23.3-9 18-6.7 38.8 6.1 53 24.3 27 67.8 18 79.2-16.5 2.4-7.2 2.6-19.6.5-26.8-6.9-23.4-30.5-37.8-54-33zM618.2 292.7c-18.8 3.1-34.8 15-43 32.1-1.7 3.4-3.3 7.5-3.6 9-.4 1.5-.9 3.8-1.2 5.2-1.1 5.6-1.1 15.5.2 22.1 4.1 21.6 21.3 39.7 42.9 45.4 7.2 1.9 20.3 2.1 27 .4 20-4.9 35.8-19.3 42.6-38.9 3.3-9.5 3.3-25.7 0-35.8-9-27.6-36.5-44.3-64.9-39.5zM596 429.7c-22.8 8.3-35.7 32.5-29.5 55.7 6.6 25 32.9 40.1 57.3 33.1 20.8-6 34.6-24.7 34.1-46-.6-21.2-13.5-37.7-34.4-44-7.2-2.1-19.8-1.6-27.5 1.2z"/></svg>