<svg width="1440" height="300" xmlns="http://www.w3.org/2000/svg" xmlns:svg="http://www.w3.org/2000/svg" xmlns:xlink="http://www.w3.org/1999/xlink" preserveAspectRatio="xMidYMid meet">
 <defs>
  <path id="clEdh9Za3" d="m239.56,230.982499c-10.07,1.68 -16.37,2.73 -18.9,3.15c-66.79,11.14 -134.97,11.14 -201.76,0c-3.79,-0.63 20.17,3.36 0,0c-10.9,-1.82 -18.9,-11.25 -18.9,-22.3c0,-40.09 0,-142.2 0,-182.54c0,-10.32 7.47,-19.15 17.66,-20.84c20.42,-3.41 -3.53,0.59 0,0c67.61,-11.27 136.63,-11.27 204.24,0c2.36,0.39 8.24,1.37 17.66,2.94"/>
  <path id="j1oB3tXPA3" d="m239.56,230.982499c-10.07,1.68 -16.37,2.73 -18.9,3.15c-66.79,11.14 -181.59,3.36 -201.76,0c-10.9,-1.82 -18.9,-11.25 -18.9,-22.3c0,-40.09 0,-142.2 0,-182.54c0,-10.32 7.47,-19.15 17.66,-20.84c20.42,-3.41 136.63,-11.27 204.24,0c2.36,0.39 8.24,1.37 17.66,2.94"/>
  <path id="aECoT1WqP" d="m215.05,66.252499c0,-11.05 8.96,-20.01 20.01,-20.01c11.05,0 20.02,8.96 20.02,20.01c0,11.05 -8.97,20.01 -20.02,20.01c-11.05,0 -20.01,-8.96 -20.01,-20.01z"/>
  <path id="e43GsPGgxA" d="m215.05,66.252499c0,-11.05 8.96,-20.01 20.01,-20.01c11.05,0 20.02,8.96 20.02,20.01c0,11.05 -8.97,20.01 -20.02,20.01c-11.05,0 -20.01,-8.96 -20.01,-20.01z"/>
  <path id="dyN8I7Mmv" d="m217,121.002499c0,-13.8 11.2,-25 25,-25c13.81,0 25,11.2 25,25c0,13.79 -11.19,25 -25,25c-13.8,0 -25,-11.21 -25,-25z"/>
  <path id="a5AGOmMExn" d="m217,121.002499c0,-13.8 11.2,-25 25,-25c13.81,0 25,11.2 25,25c0,13.79 -11.19,25 -25,25c-13.8,0 -25,-11.21 -25,-25z"/>
  <path id="g4pMDXHvfP" d="m215.05,173.992499c0,-11.05 8.96,-20.03 20.01,-20.03c11.05,0 20.02,8.98 20.02,20.03c0,11.03 -8.97,20.01 -20.02,20.01c-11.05,0 -20.01,-8.98 -20.01,-20.01z"/>
  <path id="c806CGG09" d="m215.05,173.992499c0,-11.05 8.96,-20.03 20.01,-20.03c11.05,0 20.02,8.98 20.02,20.03c0,11.03 -8.97,20.01 -20.02,20.01c-11.05,0 -20.01,-8.98 -20.01,-20.01z"/>
 </defs>
 <g>
  <title>Layer 1</title>
  <g id="svg_1">
   <g id="svg_2">
    <g id="svg_3">
     <use x="33" y="31.002499" id="svg_4" fill-opacity="0" fill="#000000" xlink:href="#clEdh9Za3"/>
     <g id="svg_5">
      <use x="33" y="31.002499" id="svg_6" stroke-opacity="0" stroke="#000000" fill-opacity="0" xlink:href="#clEdh9Za3"/>
     </g>
    </g>
    <g id="svg_7">
     <use x="33" y="31.002499" id="svg_8" fill-opacity="0" fill="#000000" xlink:href="#j1oB3tXPA3"/>
     <g id="svg_9">
      <use x="33" y="31.002499" id="svg_10" stroke-width="42" stroke="#ff942f" fill-opacity="0" xlink:href="#j1oB3tXPA3"/>
     </g>
    </g>
    <g id="svg_11">
     <use x="33" y="31.002499" id="svg_12" fill="#ff942f" xlink:href="#aECoT1WqP"/>
     <g id="svg_13">
      <use x="33" y="31.002499" id="svg_14" stroke-opacity="0" stroke="#000000" fill-opacity="0" xlink:href="#aECoT1WqP"/>
     </g>
    </g>
    <g id="svg_15">
     <use x="33" y="31.002499" id="svg_16" fill-opacity="0" fill="#000000" xlink:href="#e43GsPGgxA"/>
     <g id="svg_17">
      <use x="33" y="31.002499" id="svg_18" stroke-opacity="0" stroke="#000000" fill-opacity="0" xlink:href="#e43GsPGgxA"/>
     </g>
    </g>
    <g id="svg_19">
     <use x="33" y="31.002499" id="svg_20" fill="#ff942f" xlink:href="#dyN8I7Mmv"/>
     <g id="svg_21">
      <use x="33" y="31.002499" id="svg_22" stroke-opacity="0" stroke="#000000" fill-opacity="0" xlink:href="#dyN8I7Mmv"/>
     </g>
    </g>
    <g id="svg_23">
     <use x="33" y="31.002499" id="svg_24" fill-opacity="0" fill="#000000" xlink:href="#a5AGOmMExn"/>
     <g id="svg_25">
      <use x="33" y="31.002499" id="svg_26" stroke-opacity="0" stroke="#000000" fill-opacity="0" xlink:href="#a5AGOmMExn"/>
     </g>
    </g>
    <g id="svg_27">
     <use x="33" y="31.002499" id="svg_28" fill="#ff942f" xlink:href="#g4pMDXHvfP"/>
     <g id="svg_29">
      <use x="33" y="31.002499" id="svg_30" stroke-opacity="0" stroke="#000000" fill-opacity="0" xlink:href="#g4pMDXHvfP"/>
     </g>
    </g>
    <g id="svg_31">
     <use x="33" y="31.002499" id="svg_32" fill-opacity="0" fill="#000000" xlink:href="#c806CGG09"/>
     <g id="svg_33">
      <use x="33" y="31.002499" id="svg_34" stroke-opacity="0" stroke="#000000" fill-opacity="0" xlink:href="#c806CGG09"/>
     </g>
    </g>
   </g>
  </g>
  <text stroke="#000000" transform="matrix(7.580699443817138,0,0,7.580699443817138,-2340.9826761633153,-887.871035426855) " font-weight="bold" xml:space="preserve" font-family="Sans-serif" font-size="24" id="svg_35" y="145.23929" x="349.84489" stroke-width="0" fill="#ff942f">MySpotBook</text>
 </g>
</svg>
