<?xml version="1.0" encoding="utf-8"?>
<!-- Generator: Adobe Illustrator 16.0.0, SVG Export Plug-In . SVG Version: 6.00 Build 0)  -->
<!DOCTYPE svg PUBLIC "-//W3C//DTD SVG 1.1 Tiny//EN" "http://www.w3.org/Graphics/SVG/1.1/DTD/svg11-tiny.dtd">
<svg version="1.1" baseProfile="tiny" id="Layer_1" xmlns:sketch="http://www.bohemiancoding.com/sketch/ns"
	 xmlns="http://www.w3.org/2000/svg" xmlns:xlink="http://www.w3.org/1999/xlink" x="0px" y="0px" width="184.928px"
	 height="47.577px" viewBox="128.99 159.412 184.928 47.577" xml:space="preserve">
<g id="eye-shtter" sketch:type="MSPage" fill="#000">
	<g id="Fotoraporto" sketch:type="MSArtboardGroup">
		<g id="Imported-Layers-2" transform="translate(130.000000, 160.000000)" sketch:type="MSLayerGroup">
			<path id="Stroke-1" sketch:type="MSShapeGroup" fill="none" stroke="#000" stroke-width="0.5" d="M12.085,36.559L4.372,23.201
				l7.713-13.358H27.51l7.711,13.358L27.51,36.559H12.085L12.085,36.559z"/>
			<path id="Stroke-2" sketch:type="MSShapeGroup" fill="none" stroke="#000" stroke-width="0.875" d="M13.916,38.878
				L3.279,25.945l5.882-15.676L25.68,7.524l10.635,12.932l-5.881,15.677L13.916,38.878L13.916,38.878z"/>
			<path id="Stroke-3" sketch:type="MSShapeGroup" fill="none" stroke="#000" stroke-width="1.25" d="M15.746,41.197
				L2.185,28.691l4.053-17.997l17.611-5.49l13.558,12.506l-4.05,17.996L15.746,41.197L15.746,41.197z"/>
			<path id="Stroke-4" sketch:type="MSShapeGroup" fill="none" stroke="#000" stroke-width="1.625" d="M17.577,43.516
				L1.093,31.436l2.222-20.314l18.703-8.235L38.5,14.966l-2.219,20.316L17.577,43.516L17.577,43.516z"/>
			<path id="Stroke-5" sketch:type="MSShapeGroup" fill="none" stroke="#000" stroke-width="2" d="M19.408,45.835L0,34.182
				l0.391-22.636L20.188,0.567l19.406,11.655l-0.39,22.633L19.408,45.835L19.408,45.835z"/>
			<path id="Stroke-6" sketch:type="MSShapeGroup" fill="none" stroke="#000" stroke-width="0.5" d="M27.883,23.201
				c0,4.466-3.62,8.087-8.086,8.087c-4.467,0-8.086-3.621-8.086-8.087c0-4.466,3.619-8.086,8.086-8.086
				C24.263,15.115,27.883,18.735,27.883,23.201L27.883,23.201z M29.629,23.201c0,1.675-2.562,6.454-3.658,7.552
				c-1.1,1.099-6.384,1.776-8.058,1.776c-3.35,0-7.948-5.979-7.948-9.328c0-3.349,4.598-9.328,7.948-9.328
				c1.674,0,6.958,0.68,8.058,1.777C27.067,16.747,29.629,21.525,29.629,23.201L29.629,23.201z M31.376,23.201
				c0,1.115-4.22,8.654-4.951,9.386c-0.733,0.731-9.28,1.185-10.396,1.183c-2.234,0-7.811-8.336-7.811-10.568
				c0-2.233,5.577-10.569,7.811-10.569c1.116,0,9.663,0.452,10.396,1.184C27.156,14.548,31.376,22.085,31.376,23.201L31.376,23.201z
				 M33.123,23.201c0,0.558-5.878,10.854-6.244,11.219c-0.365,0.366-12.176,0.594-12.734,0.592c-1.118,0-7.674-10.695-7.674-11.811
				c0-1.116,6.556-11.811,7.674-11.811c0.558,0,12.369,0.226,12.734,0.592C27.245,12.348,33.123,22.643,33.123,23.201L33.123,23.201
				z M12.261,36.254L4.725,23.201l7.536-13.053h15.073l7.535,13.053l-7.535,13.053H12.261L12.261,36.254z"/>
		</g>
		<g id="Imported-Layers" transform="translate(180.000000, 175.000000)" sketch:type="MSLayerGroup">
			<path id="Fill-1" sketch:type="MSShapeGroup" fill="#000" d="M76.865,22.773c-0.752,0-1.509,0.045-2.255-0.024
				c-0.251-0.022-0.604-0.287-0.687-0.521c-0.141-0.395,0.062-0.73,0.538-0.812c0.184-0.032,0.356-0.146,0.538-0.158
				c0.648-0.04,0.776-0.421,0.766-0.998c-0.026-1.478-0.008-2.957-0.008-4.437c0-2.768,0.002-5.535-0.002-8.304
				c0-1.159-0.005-1.161-1.114-1.376c-0.147-0.029-0.343,0.008-0.437-0.075c-0.184-0.165-0.418-0.385-0.432-0.596
				c-0.014-0.205,0.201-0.593,0.355-0.614c0.992-0.138,1.996-0.232,2.997-0.252c0.188-0.004,0.535,0.378,0.552,0.6
				c0.076,1.086,0.426,0.61,0.895,0.238c1.25-0.99,2.679-1.299,4.244-0.998c1.844,0.355,3.028,1.438,3.534,3.25
				c0.544,1.95,0.493,3.888-0.206,5.799c-1.117,3.055-4.327,4.078-7.121,3.715c-1.096-0.144-1.089-0.17-1.076,0.967
				c0.008,0.721,0.023,1.441-0.002,2.161c-0.018,0.538,0.135,0.866,0.729,0.909c0.293,0.022,0.639,0.07,0.854,0.242
				c0.223,0.178,0.421,0.518,0.426,0.789c0.002,0.161-0.381,0.455-0.605,0.472c-0.824,0.057-1.654,0.022-2.482,0.022V22.773
				L76.865,22.773z M77.951,11.254v1.936c0,2.172,0.154,2.332,2.324,2.409c0.15,0.006,0.301,0.002,0.451-0.009
				c1.735-0.129,2.872-0.997,3.393-2.68c0.457-1.482,0.459-2.99-0.01-4.475c-0.564-1.783-2.062-2.652-3.868-2.291
				c-1.504,0.301-2.289,1.272-2.29,2.834C77.951,9.737,77.951,10.496,77.951,11.254L77.951,11.254z"/>
			<path id="Fill-2" sketch:type="MSShapeGroup" fill="#000" d="M5.937,0.02c1.581-0.001,3.162-0.014,4.743,0.003
				c1.049,0.011,1.245,0.204,1.288,1.263c0.029,0.719-0.005,1.44,0.003,2.16c0.004,0.424-0.118,0.845-0.569,0.798
				c-0.283-0.03-0.614-0.361-0.771-0.644c-0.197-0.352-0.27-0.787-0.337-1.196c-0.089-0.546-0.368-0.771-0.917-0.763
				c-1.354,0.019-2.71,0.018-4.065,0C4.75,1.635,4.493,1.827,4.504,2.433c0.028,1.517,0.029,3.035,0,4.552
				C4.492,7.588,4.729,7.785,5.302,7.766c0.903-0.031,1.808-0.035,2.71,0.002C8.569,7.789,8.85,7.568,8.934,7.028
				C8.963,6.844,8.992,6.614,9.11,6.496C9.327,6.28,9.612,5.996,9.865,6c0.177,0.004,0.485,0.434,0.495,0.684
				c0.051,1.249,0.045,2.503,0.003,3.753c-0.008,0.233-0.286,0.654-0.417,0.646c-0.279-0.018-0.763-0.24-0.779-0.416
				C9.021,9.08,7.908,9.279,6.861,9.312c-0.564,0.018-1.13,0.021-1.694,0C4.676,9.295,4.505,9.52,4.509,9.994
				c0.014,1.518,0.024,3.035-0.007,4.553c-0.012,0.544,0.224,0.739,0.708,0.802c0.37,0.048,0.77,0.081,1.087,0.251
				c0.254,0.137,0.601,0.516,0.557,0.702c-0.066,0.284-0.43,0.695-0.68,0.704c-1.767,0.061-3.538,0.062-5.305,0.004
				C0.605,17,0.217,16.624,0.125,16.34c-0.144-0.447,0.283-0.637,0.653-0.757c0.459-0.149,1.152-0.148,1.332-0.456
				c0.253-0.434,0.159-1.092,0.161-1.654C2.28,9.945,2.277,6.418,2.274,2.89c0-1.072-0.007-1.07-1.036-1.341
				c-0.218-0.057-0.487-0.08-0.63-0.223C0.392,1.108,0.121,0.785,0.146,0.535C0.167,0.341,0.6,0.05,0.855,0.043
				C2.548-0.001,4.243,0.021,5.937,0.02"/>
			<path id="Fill-3" sketch:type="MSShapeGroup" fill="#000" d="M121.822,11.624c0.007-4.062,1.741-6.495,4.961-7.142
				c3.339-0.671,6.628,0.703,7.064,4.869c0.26,2.48-0.147,4.779-2.146,6.516c-2.188,1.897-6.023,1.902-8.131-0.002
				C122.168,14.6,121.854,12.905,121.822,11.624L121.822,11.624z M131.621,11.562c0.021-1.487-0.092-2.608-0.652-3.635
				c-0.717-1.312-1.851-2.025-3.313-1.947c-1.452,0.077-2.567,0.842-3.104,2.258c-0.675,1.773-0.664,3.561,0.167,5.283
				c0.646,1.344,1.743,2.049,3.246,2.029c1.507-0.018,2.585-0.754,3.161-2.134C131.41,12.733,131.515,11.973,131.621,11.562
				L131.621,11.562z"/>
			<path id="Fill-4" sketch:type="MSShapeGroup" fill="#000" d="M36.854,10.552c0.018-1.647,0.652-3.631,2.543-5.053
				c2.22-1.668,5.878-1.548,7.858,0.265c1.035,0.949,1.473,2.181,1.615,3.531c0.266,2.482-0.111,4.78-2.091,6.533
				c-2.202,1.949-6.081,1.941-8.219,0.005C37.469,14.844,36.864,13.191,36.854,10.552L36.854,10.552z M46.682,11.704
				c-0.024-1.682-0.127-2.841-0.742-3.89c-0.734-1.252-1.854-1.916-3.266-1.834c-1.403,0.082-2.506,0.807-3.05,2.17
				c-0.72,1.803-0.713,3.625,0.134,5.388c1.177,2.45,4.522,2.786,6.023,0.547C46.322,13.277,46.495,12.221,46.682,11.704
				L46.682,11.704z"/>
			<path id="Fill-5" sketch:type="MSShapeGroup" fill="#000" d="M101.196,10.471c-0.021,2.172-0.589,4.102-2.357,5.52
				c-1.93,1.545-5.237,1.732-7.312,0.402c-1.772-1.137-2.315-2.908-2.407-4.869c-0.165-3.516,1.564-6.399,4.972-7.062
				c1.552-0.302,3.077-0.172,4.479,0.596c1.842,1.011,2.445,2.763,2.624,4.733C101.214,10.016,101.196,10.244,101.196,10.471
				L101.196,10.471z M99.01,10.393c-0.216-0.658-0.396-1.777-0.924-2.695c-1.345-2.345-4.822-2.286-6.018,0.09
				c-0.99,1.969-0.973,4.036,0.084,5.994c1.035,1.918,3.536,2.366,5.247,1.021C98.696,13.783,98.823,12.302,99.01,10.393
				L99.01,10.393z"/>
			<path id="Fill-6" sketch:type="MSShapeGroup" fill="#000" d="M25.949,10.578c-0.038,2.178-0.657,4.092-2.439,5.481
				c-1.933,1.509-5.308,1.64-7.323,0.278c-1.698-1.148-2.186-2.891-2.324-4.808c-0.258-3.579,1.658-6.333,4.976-7.062
				c1.463-0.322,2.919-0.184,4.277,0.485c1.982,0.977,2.638,2.775,2.83,4.831C25.97,10.047,25.949,10.313,25.949,10.578
				L25.949,10.578z M16.003,10.871c0.276,0.896,0.438,2.014,0.942,2.943c1.277,2.354,4.801,2.357,6.034,0.013
				c1.052-2.001,1.001-4.093-0.088-6.087c-0.672-1.23-1.833-1.838-3.188-1.757c-1.437,0.087-2.591,0.814-3.093,2.255
				C16.339,9.013,16.233,9.845,16.003,10.871L16.003,10.871z"/>
			<path id="Fill-7" sketch:type="MSShapeGroup" fill="#000" d="M70.76,11.13c0,1.099,0.028,2.199-0.011,3.296
				c-0.022,0.621,0.228,0.91,0.813,0.969c0.225,0.021,0.471,0.019,0.662,0.115c0.207,0.104,0.504,0.312,0.504,0.475
				c0,0.248-0.189,0.683-0.354,0.713c-0.948,0.167-1.913,0.284-2.875,0.307c-0.226,0.006-0.62-0.395-0.662-0.654
				c-0.157-0.953-0.451-0.421-0.798-0.145c-1.568,1.256-3.311,1.361-5.088,0.595c-1.296-0.56-1.9-1.654-1.896-3.085
				c0.003-1.418,0.817-2.234,2.024-2.707c1.468-0.576,3.003-0.634,4.55-0.42c0.919,0.127,0.945,0.113,0.982-0.816
				c0.146-3.628-1.557-3.955-4.396-3.552c-0.366,0.052-0.711,0.245-1.076,0.321c-0.451,0.093-1.029,0.395-1.252-0.279
				c-0.215-0.651,0.286-1.011,0.808-1.155c1.08-0.298,2.174-0.584,3.279-0.726c0.689-0.088,1.424,0.037,2.117,0.173
				c1.674,0.329,2.535,1.318,2.627,3.052c0.062,1.172,0.012,2.35,0.012,3.524H70.76L70.76,11.13z M66.346,11.84
				c-0.41,0.062-1.015,0.104-1.592,0.252c-0.635,0.164-1.197,0.477-1.326,1.229c-0.124,0.727,0.182,1.402,0.881,1.816
				c1.18,0.699,2.314,0.428,3.399-0.244c0.803-0.497,1.066-1.293,0.8-2.377c-0.197-0.802-0.952-0.375-1.414-0.604
				C66.937,11.834,66.724,11.871,66.346,11.84L66.346,11.84z"/>
			<path id="Fill-8" sketch:type="MSShapeGroup" fill="#000" d="M29.617,10.576c0-1.137,0.007-2.275-0.002-3.413
				c-0.008-0.973-0.016-0.972-0.993-1.026c-0.893-0.049-1.285-0.461-0.918-1.034c0.167-0.261,0.611-0.523,0.898-0.492
				c0.921,0.097,1.176-0.365,1.258-1.159c0.054-0.523,0.194-1.042,0.35-1.546c0.151-0.487,0.519-0.769,1.036-0.674
				c0.502,0.092,0.599,0.494,0.583,0.957c-0.019,0.531,0.02,1.063-0.009,1.593c-0.03,0.565,0.149,0.844,0.761,0.804
				c0.6-0.04,1.204-0.004,1.806-0.006c0.465-0.001,0.833,0.128,0.837,0.683c0.004,0.547-0.281,0.852-0.826,0.866
				c-0.602,0.017-1.205,0.025-1.806,0.005c-0.49-0.016-0.777,0.104-0.771,0.685c0.025,2.312-0.015,4.627,0.046,6.938
				c0.036,1.379,0.811,1.884,2.21,1.617c0.406-0.077,0.947-0.381,1.156,0.23c0.219,0.639-0.258,0.979-0.775,1.187
				c-1.086,0.433-2.207,0.419-3.314,0.108c-0.762-0.214-1.216-0.814-1.303-1.566c-0.138-1.198-0.16-2.41-0.22-3.617
				C29.602,11.336,29.618,10.955,29.617,10.576"/>
			<path id="Fill-9" sketch:type="MSShapeGroup" fill="#000" d="M114.555,10.817c0-1.214,0.008-2.428-0.003-3.642
				c-0.009-0.985-0.02-0.988-0.999-1.037c-0.445-0.022-0.96,0.074-1.006-0.603c-0.041-0.606,0.273-0.889,0.857-0.959
				c1.18-0.142,1.17-0.155,1.401-1.35c0.093-0.481,0.138-1.01,0.377-1.413c0.171-0.289,0.628-0.534,0.964-0.543
				c0.187-0.004,0.498,0.494,0.557,0.803c0.095,0.514,0.078,1.062,0.021,1.587c-0.086,0.802,0.301,0.978,0.989,0.925
				c0.523-0.04,1.053-0.004,1.58-0.007c0.471-0.002,0.85,0.163,0.849,0.687c-0.001,0.51-0.271,0.86-0.833,0.866
				c-0.603,0.008-1.205,0.021-1.807,0.003c-0.491-0.016-0.778,0.114-0.771,0.688c0.032,2.351-0.004,4.703,0.073,7.052
				c0.042,1.274,0.822,1.785,2.083,1.534c0.036-0.007,0.069-0.033,0.105-0.039c0.418-0.056,0.958-0.362,1.166,0.221
				c0.226,0.633-0.284,0.984-0.783,1.191c-1.079,0.447-2.211,0.462-3.308,0.119c-1.097-0.342-1.425-1.301-1.472-2.33
				c-0.059-1.248-0.014-2.502-0.014-3.753H114.555"/>
			<path id="Fill-10" sketch:type="MSShapeGroup" fill="#000" d="M55.167,11.693c0,0.796-0.003,1.591,0.001,2.387
				c0.004,1.176,0.007,1.174,1.097,1.423c0.219,0.05,0.475,0.062,0.64,0.189c0.207,0.161,0.504,0.46,0.465,0.629
				c-0.062,0.265-0.354,0.495-0.586,0.691c-0.093,0.078-0.291,0.034-0.44,0.035c-1.429,0.002-2.856,0.008-4.284-0.005
				c-0.255-0.002-0.539-0.026-0.758-0.141c-0.514-0.27-0.508-0.877-0.018-1.168c0.062-0.038,0.143-0.045,0.213-0.072
				c0.482-0.183,1.201-0.236,1.387-0.582c0.256-0.478,0.131-1.174,0.135-1.777c0.01-1.97,0.01-3.939,0-5.908
				c-0.005-1.039-0.035-1.062-1.031-1.231c-0.185-0.032-0.415,0.021-0.551-0.073c-0.221-0.154-0.509-0.384-0.529-0.604
				c-0.02-0.215,0.236-0.634,0.413-0.659c0.993-0.14,1.999-0.25,3-0.245c0.647,0.003,0.599,0.664,0.72,1.122
				c0.037,0.14,0.077,0.28,0.116,0.419c0.136-0.099,0.302-0.174,0.403-0.301c0.718-0.888,1.566-1.554,2.766-1.479
				c0.363,0.022,0.87,0.168,1.037,0.434c0.34,0.54,0.243,1.225-0.188,1.682c-0.221,0.233-0.775,0.361-1.084,0.256
				c-0.792-0.271-1.407,0.001-1.992,0.435c-0.634,0.469-1.018,1.062-0.946,1.934C55.223,9.947,55.167,10.822,55.167,11.693"/>
			<path id="Fill-11" sketch:type="MSShapeGroup" fill="#000" d="M106.389,17.048c-0.752,0-1.504-0.001-2.255,0.001
				c-0.492,0.002-0.928-0.119-1.003-0.686c-0.074-0.56,0.396-0.656,0.785-0.783c0.178-0.059,0.367-0.074,0.551-0.111
				c0.5-0.104,0.766-0.353,0.76-0.928c-0.023-2.461-0.027-4.924,0.003-7.385c0.007-0.635-0.272-0.889-0.831-0.962
				c-0.075-0.01-0.148-0.024-0.223-0.034c-0.468-0.066-1.057,0.03-1.102-0.683c-0.049-0.785,0.639-0.735,1.102-0.863
				c0.391-0.108,0.819-0.082,1.232-0.104c1.404-0.077,1.473-0.025,1.839,1.315c0.028,0.104,0.076,0.202,0.114,0.303
				c0.113-0.074,0.256-0.125,0.334-0.226c0.752-0.972,1.657-1.639,2.952-1.581c0.87,0.039,1.165,0.409,1.045,1.33
				c-0.124,0.946-0.504,1.271-1.317,1.126c-1.881-0.338-3.006,0.61-3.009,2.541c-0.002,1.666,0.034,3.334-0.017,4.999
				c-0.021,0.708,0.238,1.052,0.901,1.157c0.258,0.041,0.554,0.047,0.756,0.184c0.242,0.164,0.604,0.52,0.556,0.668
				c-0.097,0.285-0.43,0.654-0.697,0.684c-0.816,0.088-1.649,0.031-2.477,0.031V17.048"/>
		</g>
	</g>
</g>
</svg>
