<?xml version="1.0" encoding="utf-8"?>
<!-- Generator: Adobe Illustrator 19.0.0, SVG Export Plug-In . SVG Version: 6.00 Build 0)  -->
<svg version="1.1" id="Capa_1" xmlns="http://www.w3.org/2000/svg" xmlns:xlink="http://www.w3.org/1999/xlink" x="0px" y="0px"
	 viewBox="0 0 58.2 66.4" style="enable-background:new 0 0 58.2 66.4;" xml:space="preserve">
<path fill="#000" id="XMLID_53_" class="st0" d="M58.2,48.9l0,0.5l-0.5,0.3L30,66.2l-0.5,0.3l-0.5-0.3L0.9,50.4l-0.5-0.3l0-0.5L0,17.5l0-0.5
	l0.5-0.3L28.3,0.3L28.7,0l0.5,0.3L57.4,16l0.5,0.3l0,0.5L58.2,48.9z M56.4,49L56,16.8l0.5,0.8L28.3,1.9l0.9,0L1.4,18.2l0.4-0.8
	l0.4,32.2l-0.5-0.8L30,64.6l-0.9,0l27.8-16.4L56.4,49z M5.1,18l0-0.5l0.5-0.2L30.4,4.9l0.5-0.2L31.3,5l23.1,15.2l0.4,0.3l0,0.5
	l-1.7,27.5l0,0.5l-0.5,0.2L27.9,61.5l-0.5,0.2L27,61.4L3.9,46.3L3.4,46l0-0.5L5.1,18z M6.9,18.1L5.3,45.6l-0.4-0.8L28,59.9l-0.9-0.1
	l24.8-12.3l-0.5,0.8L53,20.8l0.4,0.8L30.3,6.5l0.9,0.1L6.4,18.9L6.9,18.1z M10.2,18.5l0.1-0.5l0.5-0.2l21.7-8.2L33,9.4l0.4,0.3
	l18,14.6l0.4,0.3l-0.1,0.5L48,47.9l-0.1,0.5l-0.5,0.2l-21.7,8.2L25.2,57l-0.4-0.3l-18-14.6l-0.4-0.3l0.1-0.5L10.2,18.5z M12,18.8
	L8.3,41.6L8,40.7l18,14.6l-0.9-0.1l21.7-8.2l-0.6,0.7l3.7-22.8l0.3,0.9l-18-14.6l0.9,0.1l-21.7,8.2L12,18.8z M15.4,18.9l0.2-0.5
	l0.5-0.1l18.6-4.1l0.5-0.1l0.4,0.4l12.9,14l0.4,0.4l-0.2,0.5l-5.8,18.1L42.7,48l-0.5,0.1l-18.6,4.1l-0.5,0.1l-0.4-0.4l-12.9-14
	l-0.4-0.4L9.6,37L15.4,18.9z M17.1,19.5l-5.7,18.1l-0.2-0.9l12.9,14l-0.9-0.3l18.6-4.1l-0.7,0.6l5.8-18.1l0.2,0.9l-12.9-14l0.9,0.3
	l-18.6,4.1L17.1,19.5z M37.7,47.1l-0.3,0.5h-0.5H21.3h-0.5l-0.3-0.5l-7.8-13.4l-0.3-0.5l0.3-0.5l7.8-13.4l0.3-0.5h0.5h15.6h0.5
	l0.3,0.5l7.8,13.4l0.3,0.5l-0.3,0.5L37.7,47.1z M36.1,46.2l7.8-13.4v0.9l-7.8-13.4l0.8,0.5H21.3l0.8-0.5l-7.8,13.4v-0.9l7.8,13.4
	l-0.8-0.5h15.6L36.1,46.2z"/>
</svg>
