<?xml version="1.0" encoding="UTF-8" standalone="no"?>
<!DOCTYPE svg PUBLIC "-//W3C//DTD SVG 1.1//EN" "http://www.w3.org/Graphics/SVG/1.1/DTD/svg11.dtd">
<svg version="1.1" xmlns="http://www.w3.org/2000/svg" xmlns:xlink="http://www.w3.org/1999/xlink" preserveAspectRatio="xMidYMid meet" viewBox="0 0 300 300" width="300" height="300"><defs><path d="M266.56 259.98C256.49 261.66 250.19 262.71 247.66 263.13C180.87 274.27 112.69 274.27 45.9 263.13C42.11 262.5 66.07 266.49 45.9 263.13C35 261.31 27 251.88 27 240.83C27 200.74 27 98.63 27 58.29C27 47.97 34.47 39.14 44.66 37.45C65.08 34.04 41.13 38.04 44.66 37.45C112.27 26.18 181.29 26.18 248.9 37.45C251.26 37.84 257.14 38.82 266.56 40.39" id="b49Jyt2Y9z"></path><path d="M262.06 115.26C251.01 115.26 242.05 106.3 242.05 95.25C242.05 84.2 251.01 75.24 262.06 75.24C273.11 75.24 282.08 84.2 282.08 95.25C282.08 106.3 273.11 115.26 262.06 115.26Z" id="e6U0H1Doys"></path><path d="M269 175C255.2 175 244 163.79 244 150C244 136.2 255.2 125 269 125C282.81 125 294 136.2 294 150C294 163.79 282.81 175 269 175Z" id="aeEawY9mz"></path><path d="M262.06 223C251.01 223 242.05 214.02 242.05 202.99C242.05 191.94 251.01 182.96 262.06 182.96C273.11 182.96 282.08 191.94 282.08 202.99C282.08 214.02 273.11 223 262.06 223Z" id="bQEJlKxf"></path></defs><g><g><g><use xlink:href="#b49Jyt2Y9z" opacity="1" fill="#000000" fill-opacity="0"></use><g><use xlink:href="#b49Jyt2Y9z" opacity="1" fill-opacity="0" stroke="#ff942f" stroke-width="42" stroke-opacity="1"></use></g></g><g><use xlink:href="#e6U0H1Doys" opacity="1" fill="#ff942f" fill-opacity="1"></use><g><use xlink:href="#e6U0H1Doys" opacity="1" fill-opacity="0" stroke="#000000" stroke-width="1" stroke-opacity="0"></use></g></g><g><use xlink:href="#aeEawY9mz" opacity="1" fill="#ff942f" fill-opacity="1"></use><g><use xlink:href="#aeEawY9mz" opacity="1" fill-opacity="0" stroke="#000000" stroke-width="1" stroke-opacity="0"></use></g></g><g><use xlink:href="#bQEJlKxf" opacity="1" fill="#ff942f" fill-opacity="1"></use><g><use xlink:href="#bQEJlKxf" opacity="1" fill-opacity="0" stroke="#000000" stroke-width="1" stroke-opacity="0"></use></g></g></g></g></svg>