<?xml version="1.0" encoding="UTF-8" standalone="no"?>
<!DOCTYPE svg PUBLIC "-//W3C//DTD SVG 1.1//EN" "http://www.w3.org/Graphics/SVG/1.1/DTD/svg11.dtd">
<svg version="1.1" xmlns="http://www.w3.org/2000/svg" xmlns:xlink="http://www.w3.org/1999/xlink" preserveAspectRatio="xMidYMid meet" viewBox="0 0 272 298" width="272" height="298"><defs><path d="M267.06 258.48C256.99 260.16 250.69 261.21 248.16 261.63C181.37 272.77 113.19 272.77 46.4 261.63C42.61 261 66.57 264.99 46.4 261.63C35.5 259.81 27.5 250.38 27.5 239.33C27.5 199.24 27.5 97.13 27.5 56.79C27.5 46.47 34.97 37.64 45.16 35.95C65.58 32.54 41.63 36.54 45.16 35.95C112.77 24.68 181.79 24.68 249.4 35.95C251.76 36.34 257.64 37.32 267.06 38.89" id="a4wpkhqYz"></path><path d="M246.98 117.8C235.93 117.8 226.96 108.84 226.96 97.79C226.96 86.74 235.93 77.78 246.98 77.78C258.03 77.78 266.99 86.74 266.99 97.79C266.99 108.84 258.03 117.8 246.98 117.8Z" id="b5FKM08i5g"></path><path d="M246.98 220.19C235.93 220.19 226.96 211.22 226.96 200.18C226.96 189.13 235.93 180.16 246.98 180.16C258.03 180.16 266.99 189.13 266.99 200.18C266.99 211.22 258.03 220.19 246.98 220.19Z" id="e3ndzixEO"></path><path d="M249.2 171.8C236.61 171.8 226.4 161.58 226.4 149C226.4 136.41 236.61 126.2 249.2 126.2C261.79 126.2 272 136.41 272 149C272 161.58 261.79 171.8 249.2 171.8Z" id="e1iNwtUOSl"></path></defs><g><g><g><use xlink:href="#a4wpkhqYz" opacity="1" fill="#000000" fill-opacity="0"></use><g><use xlink:href="#a4wpkhqYz" opacity="1" fill-opacity="0" stroke="#ff942f" stroke-width="55" stroke-opacity="1"></use></g></g><g><use xlink:href="#b5FKM08i5g" opacity="1" fill="#ff942f" fill-opacity="1"></use><g><use xlink:href="#b5FKM08i5g" opacity="1" fill-opacity="0" stroke="#000000" stroke-width="1" stroke-opacity="0"></use></g></g><g><use xlink:href="#e3ndzixEO" opacity="1" fill="#ff942f" fill-opacity="1"></use><g><use xlink:href="#e3ndzixEO" opacity="1" fill-opacity="0" stroke="#000000" stroke-width="1" stroke-opacity="0"></use></g></g><g><use xlink:href="#e1iNwtUOSl" opacity="1" fill="#ff942f" fill-opacity="1"></use><g><use xlink:href="#e1iNwtUOSl" opacity="1" fill-opacity="0" stroke="#000000" stroke-width="1" stroke-opacity="0"></use></g></g></g></g></svg>