<?xml version="1.0" encoding="UTF-8" standalone="no"?>
<!DOCTYPE svg PUBLIC "-//W3C//DTD SVG 1.1//EN" "http://www.w3.org/Graphics/SVG/1.1/DTD/svg11.dtd">
<svg version="1.1" xmlns="http://www.w3.org/2000/svg" xmlns:xlink="http://www.w3.org/1999/xlink" preserveAspectRatio="xMidYMid meet" viewBox="0 0 280 260" width="280" height="260"><defs><path d="M260 195L260 240C260 240 260 240 260 240C180.55 253.24 99.45 253.24 20 240C20 240 20 240 20 240L20 20C20 20 20 20 20 20C99.45 6.76 180.55 6.76 260 20C260 20 260 20 260 20L260 65" id="c1HSVOvB4U"></path><radialGradient id="gradientb1g5sJXdvm" gradientUnits="userSpaceOnUse" cx="40" cy="36.91" dx="235.88" dy="220" r="268.12"><stop style="stop-color: #ffa800;stop-opacity: 1" offset="0%"></stop><stop style="stop-color: #c28000;stop-opacity: 1" offset="100%"></stop></radialGradient><clipPath id="clipaC1firf2K"><use xlink:href="#c1HSVOvB4U" opacity="1"></use></clipPath><path d="M266.95 176.59C266.95 184.89 260.21 191.64 251.9 191.64C243.59 191.64 236.85 184.89 236.85 176.59C236.85 168.28 243.59 161.53 251.9 161.53C260.21 161.53 266.95 168.28 266.95 176.59Z" id="i20uw0nnQe"></path><path d="M272 130.12C272 141.18 263.02 150.17 251.95 150.17C240.88 150.17 231.9 141.18 231.9 130.12C231.9 119.05 240.88 110.07 251.95 110.07C263.02 110.07 272 119.05 272 130.12Z" id="cjYLrJpo"></path><path d="M266.95 84.01C266.95 92.32 260.21 99.06 251.9 99.06C243.59 99.06 236.85 92.32 236.85 84.01C236.85 75.7 243.59 68.96 251.9 68.96C260.21 68.96 266.95 75.7 266.95 84.01Z" id="a48s9wlpt"></path></defs><g><g><g><use xlink:href="#c1HSVOvB4U" opacity="1" fill="url(#gradientb1g5sJXdvm)"></use><g clip-path="url(#clipaC1firf2K)"><use xlink:href="#c1HSVOvB4U" opacity="1" fill-opacity="0" stroke="#ffa800" stroke-width="30" stroke-opacity="1"></use></g></g><g><use xlink:href="#i20uw0nnQe" opacity="1" fill="#ffa800" fill-opacity="1"></use></g><g><use xlink:href="#cjYLrJpo" opacity="1" fill="#ffa800" fill-opacity="1"></use></g><g><use xlink:href="#a48s9wlpt" opacity="1" fill="#ffa800" fill-opacity="1"></use></g></g></g></svg>