<?xml version="1.0" encoding="UTF-8" standalone="no"?>
<!DOCTYPE svg PUBLIC "-//W3C//DTD SVG 1.1//EN" "http://www.w3.org/Graphics/SVG/1.1/DTD/svg11.dtd">
<svg version="1.1" xmlns="http://www.w3.org/2000/svg" xmlns:xlink="http://www.w3.org/1999/xlink" preserveAspectRatio="xMidYMid meet" viewBox="0 0 280 260" width="280" height="260"><defs><path d="M260 240C260 240 260 240 260 240C180.55 253.24 99.45 253.24 20 240C20 240 59.14 246.52 38.93 243.15C28.01 241.33 20 231.88 20 220.81C20 180.65 20 79.49 20 39.36C20 28.19 28.08 18.65 39.1 16.82C59.28 13.45 20 20 20 20C99.45 6.76 180.55 6.76 260 20C260 20 260 20 260 20" id="a3eNSSKhLl"></path><clipPath id="clipa2hltmV8QY"><use xlink:href="#a3eNSSKhLl" opacity="1"></use></clipPath><path d="M259.95 186.59C259.95 194.89 253.21 201.64 244.9 201.64C236.59 201.64 229.85 194.89 229.85 186.59C229.85 178.28 236.59 171.53 244.9 171.53C253.21 171.53 259.95 178.28 259.95 186.59Z" id="k1vdzKflYf"></path><path d="M265 130.12C265 141.18 256.02 150.17 244.95 150.17C233.88 150.17 224.9 141.18 224.9 130.12C224.9 119.05 233.88 110.07 244.95 110.07C256.02 110.07 265 119.05 265 130.12Z" id="a1gW114xn9"></path><path d="M259.95 74.01C259.95 82.32 253.21 89.06 244.9 89.06C236.59 89.06 229.85 82.32 229.85 74.01C229.85 65.7 236.59 58.96 244.9 58.96C253.21 58.96 259.95 65.7 259.95 74.01Z" id="a4u4QgM0At"></path></defs><g><g><g><g clip-path="url(#clipa2hltmV8QY)"><use xlink:href="#a3eNSSKhLl" opacity="1" fill-opacity="0" stroke="#ffa800" stroke-width="30" stroke-opacity="1"></use></g></g><g><use xlink:href="#k1vdzKflYf" opacity="1" fill="#ffa800" fill-opacity="1"></use></g><g><use xlink:href="#a1gW114xn9" opacity="1" fill="#ffa800" fill-opacity="1"></use></g><g><use xlink:href="#a4u4QgM0At" opacity="1" fill="#ffa800" fill-opacity="1"></use></g></g></g></svg>